<?xml version="1.0" encoding="UTF-8"?>
<svg xmlns="http://www.w3.org/2000/svg" xmlns:xlink="http://www.w3.org/1999/xlink" width="100px" height="100px" viewBox="0 0 100 100" version="1.1">
<g id="surface1">
<path style=" stroke:none;fill-rule:nonzero;fill:rgb(0%,0%,0%);fill-opacity:1;" d="M 40.539062 22.066406 C 35.675781 22.726562 33.195312 23.75 30.886719 26.042969 C 29.84375 27.066406 29.410156 27.65625 28.835938 28.871094 C 28.230469 30.105469 28.003906 30.398438 27.640625 30.484375 C 24.929688 31.09375 23.921875 31.683594 22.449219 33.558594 C 20.484375 36.023438 19.757812 37.5 19.113281 40.347656 C 18.472656 43.089844 18.332031 44.808594 18.332031 49.046875 C 18.332031 53.820312 18.421875 54.253906 19.703125 56.492188 C 20.347656 57.640625 20.484375 58.019531 20.484375 58.765625 C 20.484375 61.910156 21.980469 64.703125 24.496094 66.25 C 25.3125 66.753906 25.710938 67.1875 26.476562 68.332031 C 27.015625 69.132812 27.8125 70.191406 28.265625 70.695312 C 28.714844 71.199219 29.617188 72.257812 30.261719 73.019531 C 31.527344 74.582031 32.34375 75.085938 33.175781 74.914062 C 33.644531 74.808594 33.765625 74.878906 34.339844 75.539062 C 40.050781 82.203125 45.710938 85.226562 53.855469 85.953125 C 57.8125 86.300781 61.199219 85.765625 63.90625 84.359375 C 66.632812 82.933594 68.734375 80.660156 70.3125 77.449219 C 71.648438 74.738281 72.328125 72.359375 73.296875 67.015625 C 74.148438 62.308594 74.148438 62.550781 73.054688 59.652344 C 72.640625 58.542969 72.5 57.8125 72.378906 56.042969 L 72.203125 53.800781 L 72.847656 52.933594 C 74.515625 50.660156 74.757812 47.535156 73.386719 46.214844 C 73.074219 45.9375 72.640625 45.640625 72.394531 45.574219 C 71.667969 45.347656 71.527344 45.140625 71.527344 44.167969 C 71.527344 43.074219 71.164062 41.441406 70.574219 39.859375 C 70.328125 39.234375 70.140625 38.628906 70.140625 38.542969 C 70.140625 37.777344 71.613281 39.6875 72.8125 41.996094 C 73.246094 42.847656 73.714844 43.609375 73.820312 43.679688 C 73.921875 43.75 74.132812 43.644531 74.269531 43.472656 C 74.460938 43.210938 74.496094 42.691406 74.425781 40.796875 C 74.269531 36.925781 73.4375 34.234375 71.492188 31.371094 C 70.121094 29.359375 67.953125 28.28125 63.210938 27.257812 C 61.527344 26.890625 61.300781 26.804688 60 25.816406 C 58.265625 24.53125 55.574219 23.210938 53.734375 22.742188 C 50.972656 22.03125 43.542969 21.648438 40.539062 22.066406 Z M 58.785156 38.820312 C 59.515625 38.976562 60.453125 39.339844 61.109375 39.722656 C 62.378906 40.453125 65.886719 43.765625 65.765625 44.113281 C 65.710938 44.253906 65.363281 44.410156 64.984375 44.480469 C 64.601562 44.53125 63.699219 44.792969 62.984375 45.035156 C 61.824219 45.433594 61.441406 45.484375 59.078125 45.484375 C 56.859375 45.484375 56.335938 45.433594 55.660156 45.140625 C 53.75 44.324219 50.574219 44.027344 49.21875 44.546875 C 48.835938 44.703125 47.917969 45 47.1875 45.226562 C 45.417969 45.746094 45 46.042969 44.566406 47.066406 C 44.113281 48.109375 43.765625 48.125 43.421875 47.101562 C 43.175781 46.40625 43.175781 46.335938 43.609375 45.453125 C 44.234375 44.148438 44.375 43.699219 44.773438 41.804688 C 45.207031 39.6875 45.46875 39.289062 46.40625 39.167969 C 47.691406 39.011719 52.484375 38.542969 53.472656 38.472656 C 55.015625 38.386719 57.464844 38.542969 58.785156 38.820312 Z M 47.273438 46.441406 C 47.136719 47.273438 47.394531 47.328125 49.546875 46.890625 C 50.554688 46.683594 51.980469 46.527344 52.742188 46.527344 C 54.148438 46.527344 56.597656 47.046875 57.066406 47.429688 C 57.707031 47.953125 56.769531 50.347656 55.347656 51.839844 C 54.167969 53.109375 53.265625 53.714844 51.945312 54.148438 C 49.808594 54.878906 47.671875 54.460938 46.421875 53.109375 C 45.398438 51.960938 45.398438 51.945312 45.816406 51.492188 L 46.214844 51.078125 L 45.453125 50.242188 C 44.757812 49.480469 44.703125 49.375 44.738281 48.507812 C 44.757812 48.003906 44.894531 47.34375 45.050781 47.046875 C 45.382812 46.40625 46.25 45.832031 46.910156 45.832031 C 47.34375 45.832031 47.359375 45.867188 47.273438 46.441406 Z M 60.851562 46.007812 C 60.902344 46.109375 60.902344 46.335938 60.851562 46.527344 C 60.746094 46.839844 60.589844 46.875 59.203125 46.875 C 57.96875 46.875 57.65625 46.824219 57.570312 46.597656 C 57.292969 45.886719 57.394531 45.832031 59.097656 45.832031 C 60.015625 45.832031 60.796875 45.902344 60.851562 46.007812 Z M 72.550781 46.078125 C 73.453125 46.546875 73.699219 47.136719 73.699219 48.871094 C 73.699219 50.296875 73.644531 50.554688 73.125 51.613281 C 72.585938 52.691406 72.117188 53.089844 71.980469 52.550781 C 71.945312 52.449219 71.667969 51.476562 71.355469 50.417969 L 70.796875 48.488281 L 71.09375 47.378906 C 71.25 46.769531 71.421875 46.164062 71.457031 46.042969 C 71.546875 45.765625 71.960938 45.78125 72.550781 46.078125 Z M 67.378906 47.136719 C 67.777344 47.8125 68.402344 50.972656 68.402344 52.257812 C 68.402344 53.488281 68.507812 53.820312 68.941406 53.820312 C 69.183594 53.820312 69.304688 53.664062 69.390625 53.296875 C 69.53125 52.515625 70.085938 52.585938 70.171875 53.402344 C 70.277344 54.289062 69.984375 54.515625 68.75 54.515625 C 66.527344 54.515625 64.132812 53.265625 62.671875 51.320312 C 61.578125 49.878906 61.007812 48.089844 61.421875 47.449219 C 61.683594 47.03125 64.0625 46.546875 65.609375 46.578125 C 67.046875 46.613281 67.082031 46.632812 67.378906 47.136719 Z M 60.660156 47.605469 C 60.695312 47.726562 60.832031 48.296875 60.953125 48.855469 C 61.320312 50.519531 62.726562 52.429688 64.445312 53.609375 C 65.746094 54.496094 67.101562 54.894531 68.835938 54.929688 L 70.398438 54.949219 L 70.484375 56.683594 C 70.574219 58.140625 70.695312 58.765625 71.335938 60.589844 L 72.101562 62.742188 L 71.789062 64.496094 C 70.589844 71.300781 69.929688 73.835938 68.664062 76.476562 C 66.804688 80.363281 64.046875 82.707031 60.171875 83.679688 C 58.4375 84.113281 54.132812 84.167969 51.648438 83.765625 C 46.09375 82.863281 41.769531 80.539062 37.570312 76.164062 C 35.398438 73.90625 33.957031 71.945312 31.910156 68.507812 C 31.109375 67.171875 30.363281 65.988281 30.242188 65.851562 C 30.105469 65.730469 29.617188 65.625 29.113281 65.625 C 27.136719 65.625 25.398438 64.84375 24.078125 63.367188 C 22.984375 62.152344 22.515625 60.886719 22.515625 59.097656 C 22.515625 57.535156 22.953125 56.300781 23.957031 55.035156 C 25.015625 53.699219 27.796875 52.414062 28.664062 52.847656 C 29.480469 53.246094 30.765625 55.140625 32.171875 57.984375 C 32.933594 59.566406 33.664062 60.902344 33.75 60.972656 C 34.011719 61.144531 35.105469 61.144531 35.398438 60.953125 C 35.539062 60.867188 35.921875 59.304688 36.371094 57.015625 C 36.804688 54.828125 37.394531 52.464844 37.742188 51.476562 C 38.089844 50.519531 38.367188 49.722656 38.367188 49.6875 C 38.367188 49.671875 38.507812 49.652344 38.699219 49.652344 C 38.871094 49.652344 39.21875 49.914062 39.480469 50.242188 C 40.140625 51.109375 41.335938 52.257812 41.597656 52.257812 C 42.046875 52.257812 42.015625 51.890625 41.40625 50.765625 C 41.078125 50.121094 40.796875 49.53125 40.796875 49.445312 C 40.796875 49.113281 41.265625 49.339844 41.925781 50 C 42.328125 50.398438 43.109375 50.902344 43.664062 51.128906 C 44.53125 51.476562 44.808594 51.703125 45.398438 52.550781 C 47.152344 55.050781 49.929688 55.640625 53.074219 54.183594 C 55.226562 53.175781 57.359375 50.519531 57.585938 48.578125 C 57.726562 47.359375 57.671875 47.394531 59.203125 47.394531 C 60.171875 47.394531 60.625 47.464844 60.660156 47.605469 Z M 60.660156 47.605469 "/>
<path style=" stroke:none;fill-rule:nonzero;fill:rgb(0%,0%,0%);fill-opacity:1;" d="M 51.996094 48.074219 C 51.214844 48.421875 50.78125 49.113281 50.78125 50.015625 C 50.78125 50.746094 50.867188 50.9375 51.355469 51.421875 C 51.839844 51.910156 52.03125 51.996094 52.777344 51.996094 C 53.523438 51.996094 53.714844 51.910156 54.203125 51.421875 C 54.6875 50.9375 54.773438 50.746094 54.773438 50 C 54.773438 49.269531 54.6875 49.0625 54.234375 48.59375 C 53.664062 48.019531 52.640625 47.796875 51.996094 48.074219 Z M 52.621094 48.976562 C 52.777344 49.289062 52.742188 49.410156 52.464844 49.6875 C 52.1875 49.964844 52.066406 50 51.753906 49.84375 C 51.355469 49.617188 51.265625 49.148438 51.597656 48.820312 C 51.925781 48.488281 52.394531 48.578125 52.621094 48.976562 Z M 52.621094 48.976562 "/>
<path style=" stroke:none;fill-rule:nonzero;fill:rgb(0%,0%,0%);fill-opacity:1;" d="M 64.617188 48.210938 C 63.175781 48.921875 63.195312 51.109375 64.652344 51.804688 C 65.453125 52.1875 65.988281 52.152344 66.683594 51.683594 C 67.515625 51.128906 67.863281 50.015625 67.464844 49.203125 C 67.152344 48.523438 66.265625 47.917969 65.625 47.917969 C 65.382812 47.917969 64.929688 48.054688 64.617188 48.210938 Z M 65.347656 48.890625 C 65.539062 49.375 65.46875 49.636719 65.085938 49.828125 C 64.828125 49.984375 64.671875 49.964844 64.480469 49.808594 C 64.234375 49.601562 64.148438 48.921875 64.359375 48.734375 C 64.566406 48.507812 65.242188 48.609375 65.347656 48.890625 Z M 65.347656 48.890625 "/>
<path style=" stroke:none;fill-rule:nonzero;fill:rgb(0%,0%,0%);fill-opacity:1;" d="M 60.417969 53.679688 C 59.757812 54.773438 60.105469 55.796875 61.890625 58.019531 C 63.421875 59.914062 63.785156 60.625 63.664062 61.578125 C 63.558594 62.5 62.933594 63.453125 62.203125 63.800781 C 61.5625 64.113281 60.191406 64.132812 59.097656 63.871094 C 58.4375 63.699219 58.265625 63.714844 58.039062 63.921875 C 57.359375 64.601562 58.765625 65.277344 60.867188 65.277344 C 62.570312 65.277344 63.765625 64.515625 64.515625 62.933594 C 65.347656 61.179688 64.984375 60 62.761719 57.171875 C 61.335938 55.363281 61.144531 54.929688 61.457031 54.167969 C 61.910156 53.089844 61.023438 52.691406 60.417969 53.679688 Z M 60.417969 53.679688 "/>
<path style=" stroke:none;fill-rule:nonzero;fill:rgb(0%,0%,0%);fill-opacity:1;" d="M 26.648438 57.359375 C 26.40625 57.742188 26.40625 57.898438 26.804688 59.375 C 27.292969 61.199219 27.671875 61.734375 28.367188 61.5625 C 29.167969 61.371094 29.234375 60.9375 28.734375 59.0625 C 28.472656 58.140625 28.175781 57.273438 28.089844 57.152344 C 27.777344 56.789062 26.945312 56.910156 26.648438 57.359375 Z M 26.648438 57.359375 "/>
<path style=" stroke:none;fill-rule:nonzero;fill:rgb(0%,0%,0%);fill-opacity:1;" d="M 50.417969 70.050781 C 50.226562 70.519531 50.484375 70.78125 51.597656 71.320312 C 56.320312 73.523438 62.171875 73.421875 64.234375 71.058594 C 64.84375 70.363281 64.859375 69.914062 64.253906 69.828125 C 63.992188 69.773438 63.664062 69.929688 63.296875 70.296875 C 63.003906 70.574219 62.378906 70.988281 61.890625 71.214844 C 61.109375 71.5625 60.765625 71.613281 58.59375 71.613281 C 55.796875 71.613281 54.046875 71.234375 51.910156 70.140625 C 51.09375 69.722656 50.554688 69.6875 50.417969 70.050781 Z M 50.417969 70.050781 "/>
</g>
</svg>
